{
  "accessors": [
    {
      "bufferView": 2,
      "componentType": 5126,
      "count": 11581,
      "max": [
        124.6842041015625,
        124.59113311767578,
        250.35980224609375
      ],
      "min": [
        -124.6842041015625,
        -124.59117889404297,
        0.9914016723632813
      ],
      "type": "VEC3"
    },
    {
      "bufferView": 2,
      "byteOffset": 138972,
      "componentType": 5126,
      "count": 11581,
      "type": "VEC3"
    },
    {
      "bufferView": 3,
      "componentType": 5126,
      "count": 11581,
      "type": "VEC4"
    },
    {
      "bufferView": 1,
      "componentType": 5126,
      "count": 11581,
      "type": "VEC2"
    },
    {
      "bufferView": 1,
      "byteOffset": 92648,
      "componentType": 5126,
      "count": 11581,
      "type": "VEC2"
    },
    {
      "bufferView": 0,
      "componentType": 5125,
      "count": 62352,
      "type": "SCALAR"
    }
  ],
  "asset": {
    "generator": "fab-model-conversion",
    "version": "2.0"
  },
  "bufferViews": [
    {
      "buffer": 0,
      "byteLength": 249408,
      "target": 34963
    },
    {
      "buffer": 0,
      "byteLength": 185296,
      "byteOffset": 249408,
      "byteStride": 8,
      "target": 34962
    },
    {
      "buffer": 0,
      "byteLength": 277944,
      "byteOffset": 434704,
      "byteStride": 12,
      "target": 34962
    },
    {
      "buffer": 0,
      "byteLength": 185296,
      "byteOffset": 712648,
      "byteStride": 16,
      "target": 34962
    }
  ],
  "buffers": [
    {
      "byteLength": 897944,
      "uri": "scene.bin"
    }
  ],
  "images": [
    {
      "uri": "textures/Basketball_baseColor.png"
    },
    {
      "uri": "textures/Basketball_metallicRoughness.png"
    },
    {
      "uri": "textures/Basketball_normal.png"
    }
  ],
  "materials": [
    {
      "doubleSided": true,
      "name": "Basketball",
      "normalTexture": {
        "index": 2
      },
      "pbrMetallicRoughness": {
        "baseColorTexture": {
          "index": 0
        },
        "metallicRoughnessTexture": {
          "index": 1
        }
      }
    }
  ],
  "meshes": [
    {
      "name": "Basketball_Basketball_0",
      "primitives": [
        {
          "attributes": {
            "NORMAL": 1,
            "POSITION": 0,
            "TANGENT": 2,
            "TEXCOORD_0": 3,
            "TEXCOORD_1": 4
          },
          "indices": 5,
          "material": 0,
          "mode": 4
        }
      ]
    }
  ],
  "nodes": [
    {
      "children": [
        1
      ],
      "matrix": [
        1.0,
        0.0,
        0.0,
        0.0,
        0.0,
        2.220446049250313e-16,
        -1.0,
        0.0,
        0.0,
        1.0,
        2.220446049250313e-16,
        0.0,
        0.0,
        0.0,
        0.0,
        1.0
      ],
      "name": "Sketchfab_model"
    },
    {
      "children": [
        2
      ],
      "matrix": [
        1.0,
        0.0,
        0.0,
        0.0,
        0.0,
        0.0,
        1.0,
        0.0,
        0.0,
        -1.0,
        0.0,
        0.0,
        0.0,
        0.0,
        0.0,
        1.0
      ],
      "name": "Basketball_FBX.fbx"
    },
    {
      "children": [
        3
      ],
      "name": "RootNode"
    },
    {
      "children": [
        4
      ],
      "matrix": [
        0.0010000000474974513,
        0.0,
        0.0,
        0.0,
        0.0,
        1.7484556167371448e-10,
        -0.001000000047497436,
        0.0,
        0.0,
        0.001000000047497436,
        1.7484556167371448e-10,
        0.0,
        0.0,
        2.2888183792701966e-08,
        -5.785154070170739e-31,
        1.0
      ],
      "name": "Basketball"
    },
    {
      "mesh": 0,
      "name": "Basketball_Basketball_0"
    }
  ],
  "samplers": [
    {
      "magFilter": 9729,
      "minFilter": 9987,
      "wrapS": 10497,
      "wrapT": 10497
    }
  ],
  "scene": 0,
  "scenes": [
    {
      "name": "Sketchfab_Scene",
      "nodes": [
        0
      ]
    }
  ],
  "textures": [
    {
      "sampler": 0,
      "source": 0
    },
    {
      "sampler": 0,
      "source": 1
    },
    {
      "sampler": 0,
      "source": 2
    }
  ]
}
