{
	"asset":{
		"generator":"Khronos glTF Blender I/O v4.3.47",
		"version":"2.0"
	},
	"scene":0,
	"scenes":[
		{
			"name":"Scene",
			"nodes":[
				4
			]
		}
	],
	"nodes":[
		{
			"mesh":0,
			"name":"Basketball_Basketball_0",
			"rotation":[
				0.058393608778715134,
				-0.867439329624176,
				0.05079556256532669,
				0.491486519575119
			]
		},
		{
			"children":[
				0
			],
			"name":"Basketball",
			"rotation":[
				-0.7071065902709961,
				0,
				0,
				0.7071069478988647
			],
			"scale":[
				0.0010000000474974513,
				0.0009999999310821295,
				0.0009999999310821295
			]
		},
		{
			"children":[
				1
			],
			"name":"RootNode"
		},
		{
			"children":[
				2
			],
			"name":"Basketball_FBX.fbx",
			"rotation":[
				0.70710688829422,
				0,
				0,
				0.7071066498756409
			]
		},
		{
			"children":[
				3
			],
			"name":"Sketchfab_model",
			"rotation":[
				-0.70710688829422,
				0,
				0,
				0.7071066498756409
			]
		}
	],
	"materials":[
		{
			"doubleSided":true,
			"name":"Basketball.001",
			"normalTexture":{
				"index":0
			},
			"pbrMetallicRoughness":{
				"baseColorTexture":{
					"index":1
				},
				"metallicRoughnessTexture":{
					"index":2
				}
			}
		}
	],
	"meshes":[
		{
			"name":"Basketball_Basketball_0.001",
			"primitives":[
				{
					"attributes":{
						"POSITION":0,
						"NORMAL":1,
						"TEXCOORD_0":2,
						"TEXCOORD_1":3
					},
					"indices":4,
					"material":0
				}
			]
		}
	],
	"textures":[
		{
			"sampler":0,
			"source":0
		},
		{
			"sampler":0,
			"source":1
		},
		{
			"sampler":0,
			"source":2
		}
	],
	"images":[
		{
			"mimeType":"image/png",
			"name":"Image_2",
			"uri":"Image_2.png"
		},
		{
			"mimeType":"image/png",
			"name":"Image_0",
			"uri":"Image_0.png"
		},
		{
			"mimeType":"image/png",
			"name":"Image_1",
			"uri":"Image_1.png"
		}
	],
	"accessors":[
		{
			"bufferView":0,
			"componentType":5126,
			"count":11581,
			"max":[
				123.37186431884766,
				124.65634155273438,
				125.27445983886719
			],
			"min":[
				-125.99654388427734,
				-124.52597045898438,
				-124.09394073486328
			],
			"type":"VEC3"
		},
		{
			"bufferView":1,
			"componentType":5126,
			"count":11581,
			"type":"VEC3"
		},
		{
			"bufferView":2,
			"componentType":5126,
			"count":11581,
			"type":"VEC2"
		},
		{
			"bufferView":3,
			"componentType":5126,
			"count":11581,
			"type":"VEC2"
		},
		{
			"bufferView":4,
			"componentType":5123,
			"count":62352,
			"type":"SCALAR"
		}
	],
	"bufferViews":[
		{
			"buffer":0,
			"byteLength":138972,
			"byteOffset":0,
			"target":34962
		},
		{
			"buffer":0,
			"byteLength":138972,
			"byteOffset":138972,
			"target":34962
		},
		{
			"buffer":0,
			"byteLength":92648,
			"byteOffset":277944,
			"target":34962
		},
		{
			"buffer":0,
			"byteLength":92648,
			"byteOffset":370592,
			"target":34962
		},
		{
			"buffer":0,
			"byteLength":124704,
			"byteOffset":463240,
			"target":34963
		}
	],
	"samplers":[
		{
			"magFilter":9729,
			"minFilter":9987
		}
	],
	"buffers":[
		{
			"byteLength":587944,
			"uri":"test.bin"
		}
	]
}
